# Blender v2.57 (sub 1) OBJ File: ''
# www.blender.org
o Plane
v 1.000000 -0.000000 -1.000000
v 1.000000 0.000000 1.000000
v -1.000000 0.000000 1.000000
v -1.000000 -0.000000 -1.000000
v -0.000000 0.000000 1.000000
v 1.000000 0.000000 0.000000
v 0.000000 -0.000000 -1.000000
v -1.000000 -0.000000 -0.000000
v 0.000000 -0.000000 -0.000000
v 0.500000 0.000000 1.000000
v -0.500000 0.000000 1.000000
v 1.000000 -0.000000 -0.500000
v 1.000000 0.000000 0.500000
v 0.500000 -0.000000 -1.000000
v -0.500000 -0.000000 -1.000000
v -1.000000 0.000000 0.500000
v -1.000000 -0.000000 -0.500000
v -0.500000 -0.000000 -0.000000
v 0.000000 -0.000000 -0.500000
v 0.500000 -0.000000 -0.000000
v -0.000000 0.000000 0.500000
v -0.500000 -0.000000 -0.500000
v 0.500000 -0.000000 -0.500000
v -0.500000 0.000000 0.500000
v 0.500000 0.000000 0.500000
v 0.750000 0.000000 1.000000
v 0.250000 0.000000 1.000000
v -0.750000 0.000000 1.000000
v -0.250000 0.000000 1.000000
v 1.000000 -0.000000 -0.750000
v 1.000000 -0.000000 -0.250000
v 1.000000 0.000000 0.750000
v 1.000000 0.000000 0.250000
v 0.750000 -0.000000 -1.000000
v 0.250000 -0.000000 -1.000000
v -0.750000 -0.000000 -1.000000
v -0.250000 -0.000000 -1.000000
v -1.000000 0.000000 0.750000
v -1.000000 0.000000 0.250000
v -1.000000 -0.000000 -0.750000
v -1.000000 -0.000000 -0.250000
v -0.250000 -0.000000 -0.000000
v -0.750000 -0.000000 -0.000000
v 0.000000 -0.000000 -0.250000
v 0.000000 -0.000000 -0.750000
v 0.250000 -0.000000 -0.000000
v 0.750000 -0.000000 -0.000000
v 0.000000 0.000000 0.250000
v -0.000000 0.000000 0.750000
v -0.750000 -0.000000 -0.500000
v -0.500000 -0.000000 -0.750000
v -0.250000 -0.000000 -0.500000
v -0.500000 -0.000000 -0.250000
v 0.250000 -0.000000 -0.500000
v 0.500000 -0.000000 -0.750000
v 0.750000 -0.000000 -0.500000
v 0.500000 -0.000000 -0.250000
v -0.750000 0.000000 0.500000
v -0.500000 0.000000 0.250000
v -0.250000 0.000000 0.500000
v -0.500000 0.000000 0.750000
v 0.250000 0.000000 0.500000
v 0.500000 0.000000 0.250000
v 0.750000 0.000000 0.500000
v 0.500000 0.000000 0.750000
v -0.750000 -0.000000 -0.750000
v -0.250000 -0.000000 -0.750000
v -0.750000 -0.000000 -0.250000
v -0.250000 -0.000000 -0.250000
v 0.250000 -0.000000 -0.750000
v 0.750000 -0.000000 -0.750000
v 0.250000 -0.000000 -0.250000
v 0.750000 -0.000000 -0.250000
v -0.750000 0.000000 0.250000
v -0.250000 0.000000 0.250000
v -0.750000 0.000000 0.750000
v -0.250000 0.000000 0.750000
v 0.250000 0.000000 0.250000
v 0.750000 0.000000 0.250000
v 0.250000 0.000000 0.750000
v 0.750000 0.000000 0.750000
vt 0.997324 0.124618
vt 0.872706 0.125000
vt 0.872324 0.000382
vt 0.996942 0.000000
vt 0.748088 0.125382
vt 0.747706 0.000765
vt 0.997706 0.249235
vt 0.873088 0.249618
vt 0.748471 0.250000
vt 0.623471 0.125765
vt 0.623088 0.001147
vt 0.498853 0.126147
vt 0.498471 0.001529
vt 0.623853 0.250382
vt 0.499235 0.250765
vt 0.998088 0.373853
vt 0.873471 0.374235
vt 0.748853 0.374618
vt 0.998471 0.498471
vt 0.873853 0.498853
vt 0.749235 0.499235
vt 0.624235 0.375000
vt 0.499618 0.375382
vt 0.624618 0.499618
vt 0.500000 0.500000
vt 0.374235 0.126529
vt 0.373853 0.001912
vt 0.249618 0.126912
vt 0.249235 0.002294
vt 0.374618 0.251147
vt 0.250000 0.251529
vt 0.125000 0.127294
vt 0.124618 0.002676
vt 0.000383 0.127676
vt 0.000000 0.003058
vt 0.125382 0.251912
vt 0.000765 0.252294
vt 0.375000 0.375765
vt 0.250382 0.376147
vt 0.375382 0.500382
vt 0.250765 0.500765
vt 0.125765 0.376529
vt 0.001147 0.376912
vt 0.126147 0.501147
vt 0.001529 0.501529
vt 0.998853 0.623088
vt 0.874235 0.623471
vt 0.749618 0.623853
vt 0.999235 0.747706
vt 0.874618 0.748088
vt 0.750000 0.748471
vt 0.625000 0.624235
vt 0.500382 0.624618
vt 0.625382 0.748853
vt 0.500765 0.749235
vt 0.999618 0.872324
vt 0.875000 0.872706
vt 0.750382 0.873088
vt 1.000000 0.996941
vt 0.875382 0.997324
vt 0.750765 0.997706
vt 0.625765 0.873471
vt 0.501147 0.873853
vt 0.626147 0.998088
vt 0.501529 0.998471
vt 0.375765 0.625000
vt 0.251147 0.625382
vt 0.376147 0.749618
vt 0.251529 0.750000
vt 0.126529 0.625765
vt 0.001912 0.626147
vt 0.126912 0.750382
vt 0.002294 0.750765
vt 0.376529 0.874235
vt 0.251912 0.874618
vt 0.376912 0.998853
vt 0.252294 0.999235
vt 0.127294 0.875000
vt 0.002676 0.875382
vt 0.127676 0.999618
vt 0.003059 1.000000
vn -0.000000 1.000000 -0.000000
usemtl (null)
s off
f 32/1/1 81/2/1 26/3/1
f 32/1/1 26/3/1 2/4/1
f 81/2/1 65/5/1 10/6/1
f 81/2/1 10/6/1 26/3/1
f 13/7/1 64/8/1 81/2/1
f 13/7/1 81/2/1 32/1/1
f 64/8/1 25/9/1 65/5/1
f 64/8/1 65/5/1 81/2/1
f 65/5/1 80/10/1 27/11/1
f 65/5/1 27/11/1 10/6/1
f 80/10/1 49/12/1 5/13/1
f 80/10/1 5/13/1 27/11/1
f 25/9/1 62/14/1 80/10/1
f 25/9/1 80/10/1 65/5/1
f 62/14/1 21/15/1 49/12/1
f 62/14/1 49/12/1 80/10/1
f 33/16/1 79/17/1 64/8/1
f 33/16/1 64/8/1 13/7/1
f 79/17/1 63/18/1 25/9/1
f 79/17/1 25/9/1 64/8/1
f 6/19/1 47/20/1 79/17/1
f 6/19/1 79/17/1 33/16/1
f 47/20/1 20/21/1 63/18/1
f 47/20/1 63/18/1 79/17/1
f 63/18/1 78/22/1 62/14/1
f 63/18/1 62/14/1 25/9/1
f 78/22/1 48/23/1 21/15/1
f 78/22/1 21/15/1 62/14/1
f 20/21/1 46/24/1 78/22/1
f 20/21/1 78/22/1 63/18/1
f 46/24/1 9/25/1 48/23/1
f 46/24/1 48/23/1 78/22/1
f 49/12/1 77/26/1 29/27/1
f 49/12/1 29/27/1 5/13/1
f 77/26/1 61/28/1 11/29/1
f 77/26/1 11/29/1 29/27/1
f 21/15/1 60/30/1 77/26/1
f 21/15/1 77/26/1 49/12/1
f 60/30/1 24/31/1 61/28/1
f 60/30/1 61/28/1 77/26/1
f 61/28/1 76/32/1 28/33/1
f 61/28/1 28/33/1 11/29/1
f 76/32/1 38/34/1 3/35/1
f 76/32/1 3/35/1 28/33/1
f 24/31/1 58/36/1 76/32/1
f 24/31/1 76/32/1 61/28/1
f 58/36/1 16/37/1 38/34/1
f 58/36/1 38/34/1 76/32/1
f 48/23/1 75/38/1 60/30/1
f 48/23/1 60/30/1 21/15/1
f 75/38/1 59/39/1 24/31/1
f 75/38/1 24/31/1 60/30/1
f 9/25/1 42/40/1 75/38/1
f 9/25/1 75/38/1 48/23/1
f 42/40/1 18/41/1 59/39/1
f 42/40/1 59/39/1 75/38/1
f 59/39/1 74/42/1 58/36/1
f 59/39/1 58/36/1 24/31/1
f 74/42/1 39/43/1 16/37/1
f 74/42/1 16/37/1 58/36/1
f 18/41/1 43/44/1 74/42/1
f 18/41/1 74/42/1 59/39/1
f 43/44/1 8/45/1 39/43/1
f 43/44/1 39/43/1 74/42/1
f 31/46/1 73/47/1 47/20/1
f 31/46/1 47/20/1 6/19/1
f 73/47/1 57/48/1 20/21/1
f 73/47/1 20/21/1 47/20/1
f 12/49/1 56/50/1 73/47/1
f 12/49/1 73/47/1 31/46/1
f 56/50/1 23/51/1 57/48/1
f 56/50/1 57/48/1 73/47/1
f 57/48/1 72/52/1 46/24/1
f 57/48/1 46/24/1 20/21/1
f 72/52/1 44/53/1 9/25/1
f 72/52/1 9/25/1 46/24/1
f 23/51/1 54/54/1 72/52/1
f 23/51/1 72/52/1 57/48/1
f 54/54/1 19/55/1 44/53/1
f 54/54/1 44/53/1 72/52/1
f 30/56/1 71/57/1 56/50/1
f 30/56/1 56/50/1 12/49/1
f 71/57/1 55/58/1 23/51/1
f 71/57/1 23/51/1 56/50/1
f 1/59/1 34/60/1 71/57/1
f 1/59/1 71/57/1 30/56/1
f 34/60/1 14/61/1 55/58/1
f 34/60/1 55/58/1 71/57/1
f 55/58/1 70/62/1 54/54/1
f 55/58/1 54/54/1 23/51/1
f 70/62/1 45/63/1 19/55/1
f 70/62/1 19/55/1 54/54/1
f 14/61/1 35/64/1 70/62/1
f 14/61/1 70/62/1 55/58/1
f 35/64/1 7/65/1 45/63/1
f 35/64/1 45/63/1 70/62/1
f 44/53/1 69/66/1 42/40/1
f 44/53/1 42/40/1 9/25/1
f 69/66/1 53/67/1 18/41/1
f 69/66/1 18/41/1 42/40/1
f 19/55/1 52/68/1 69/66/1
f 19/55/1 69/66/1 44/53/1
f 52/68/1 22/69/1 53/67/1
f 52/68/1 53/67/1 69/66/1
f 53/67/1 68/70/1 43/44/1
f 53/67/1 43/44/1 18/41/1
f 68/70/1 41/71/1 8/45/1
f 68/70/1 8/45/1 43/44/1
f 50/72/1 17/73/1 41/71/1
f 50/72/1 41/71/1 68/70/1
f 45/63/1 67/74/1 52/68/1
f 45/63/1 52/68/1 19/55/1
f 67/74/1 51/75/1 22/69/1
f 67/74/1 22/69/1 52/68/1
f 7/65/1 37/76/1 67/74/1
f 7/65/1 67/74/1 45/63/1
f 37/76/1 15/77/1 51/75/1
f 37/76/1 51/75/1 67/74/1
f 51/75/1 66/78/1 50/72/1
f 51/75/1 50/72/1 22/69/1
f 66/78/1 40/79/1 17/73/1
f 66/78/1 17/73/1 50/72/1
f 15/77/1 36/80/1 66/78/1
f 15/77/1 66/78/1 51/75/1
f 36/80/1 4/81/1 40/79/1
f 36/80/1 40/79/1 66/78/1
f 22/69/1 68/70/1 53/67/1
f 22/69/1 50/72/1 68/70/1
